<?xml version="1.0" encoding="utf-8"?>
<!DOCTYPE svg PUBLIC "-//W3C//DTD SVG 1.1//EN" "http://www.w3.org/Graphics/SVG/1.1/DTD/svg11.dtd">
<svg version="1.1" xmlns="http://www.w3.org/2000/svg" xmlns:xlink="http://www.w3.org/1999/xlink" x="0px" y="0px" viewBox="0 0 1000 1000" enable-background="new 0 0 1000 1000" xml:space="preserve">
    <g>
        <path fill="#aedf90" d="M500,10C229.4,10,10,229.4,10,500c0,270.6,219.4,490,490,490c270.6,0,490-219.4,490-490S770.6,10,500,10z M500,928.8c-236.8,0-428.7-192-428.7-428.8C71.3,263.2,263.2,71.2,500,71.2c236.8,0,428.8,192,428.8,428.8C928.8,736.8,736.8,928.8,500,928.8z M827.4,311l-21.2-22.1c-11.7-12.2-31.1-12.6-43.3-0.9L409.4,627.3L261,472.7c-11.7-12.2-31.1-12.6-43.3-0.9L195.6,493c-12.2,11.7-12.6,31.1-0.9,43.3L364.4,713l21.2,22.1c11.7,12.2,31.1,12.6,43.3,0.9l397.6-381.8C838.7,342.5,839.1,323.2,827.4,311z"/>
    </g>
</svg>